<svg id="Group_1_copy" data-name="Group 1 copy" xmlns="http://www.w3.org/2000/svg" width="340.594" height="262" viewBox="0 0 340.594 262">
  <defs>
    <style>
      .cls-1 {
        fill: #4966e9;
      }

      .cls-1, .cls-2, .cls-3 {
        fill-rule: evenodd;
      }

      .cls-2, .cls-3 {
        fill: #fff;
      }

      .cls-2 {
        stroke: #fff;
        stroke-linejoin: round;
        stroke-width: 1px;
      }
    </style>
  </defs>
  <path class="cls-1" d="M12,91s9.6,44.166,25,68c0,0,24.858,45.908,51,65,0,0,17.813,19.31,49,29,0,0,39.009,13.854,55-20a134.281,134.281,0,0,0,8-34s0.269-5,.528-5c0.24,0,.472,5,0.472,5s4.094,51.3-33,61c0,0-13.1,6.537-47-4s-70.621-52.269-77-60c0,0-23.289-28.56-28-41H15v25H1V91H12Z" transform="translate(-1)"/>
  <path class="cls-2" d="M78,84v94H75S31.387,135.369,20,91c0,0-13.052-35.945,3-64,0,0,9.292-19.371,30-24,0,0,25.052-10.734,65,25l33,33L116,31S79.836,0.915,55,10c0,0-16.127,4.786-24,21,0,0-24.4,39.18,32,109h1V84H78Z" transform="translate(-1)"/>
  <path id="ofty" class="cls-3" d="M161.283,131.827a31.037,31.037,0,0,0-6.466-10.614,28.984,28.984,0,0,0-9.943-6.832,32.543,32.543,0,0,0-12.749-2.44,32.212,32.212,0,0,0-12.627,2.44,29.6,29.6,0,0,0-10,6.832,31.263,31.263,0,0,0-6.588,10.614,38.323,38.323,0,0,0-2.379,13.786,39.71,39.71,0,0,0,2.318,13.847,31.511,31.511,0,0,0,6.466,10.736,28.506,28.506,0,0,0,9.943,6.893,32.858,32.858,0,0,0,12.871,2.44,33.2,33.2,0,0,0,12.993-2.44,28.543,28.543,0,0,0,9.943-6.893,30.086,30.086,0,0,0,6.344-10.736,41.72,41.72,0,0,0,2.2-13.847A39.257,39.257,0,0,0,161.283,131.827ZM141.7,158.972a10.89,10.89,0,0,1-9.577,4.941,11.039,11.039,0,0,1-9.638-4.941q-3.417-4.941-3.416-13.359t3.416-13.237a11.125,11.125,0,0,1,9.638-4.819,10.974,10.974,0,0,1,9.577,4.819q3.354,4.821,3.355,13.237T141.7,158.972Zm42.943-68.5q-7.017,7.32-7.015,19.764v67.588h18.178V128.777h22.448V113.649H195.808v-3.172a19.583,19.583,0,0,1,.549-4.758,9.659,9.659,0,0,1,1.83-3.782,8.573,8.573,0,0,1,3.538-2.5,14.814,14.814,0,0,1,5.551-.915,28.36,28.36,0,0,1,5.307.549,23.817,23.817,0,0,1,5.307,1.647L221.428,86.2a45.758,45.758,0,0,0-6.588-2.013,39.878,39.878,0,0,0-9.394-1.037Q191.658,83.149,184.645,90.469ZM228.5,151.591a51.415,51.415,0,0,0,1.159,11.346,20.875,20.875,0,0,0,4.087,8.723,19.318,19.318,0,0,0,7.808,5.612,32.524,32.524,0,0,0,12.322,2.013,42.689,42.689,0,0,0,9.882-.976,51.462,51.462,0,0,0,7.32-2.318l-2.562-14.152a31.018,31.018,0,0,1-5.673,1.525,34.732,34.732,0,0,1-6.039.549q-6.1,0-8.113-3.416a17.948,17.948,0,0,1-2.013-9.15v-22.57H268.52V113.649H246.682V94.739L228.5,97.667v53.924ZM322.8,113.649q-1.227,4.758-2.756,10.309t-3.186,11.224q-1.653,5.673-3.368,11.041t-3.307,9.76q-1.716-4.392-3.617-9.76t-3.736-11.041q-1.839-5.673-3.492-11.224t-2.88-10.309H277.18a340.773,340.773,0,0,0,11.715,34.1q6.225,15.189,12.452,27.389a21.108,21.108,0,0,1-4.457,7.259q-2.625,2.622-7.5,2.623a28.225,28.225,0,0,1-4.64-.366,31.088,31.088,0,0,1-5-1.342l-3.172,14.518a35.176,35.176,0,0,0,5.924,1.769,36.736,36.736,0,0,0,7.882.793,31.271,31.271,0,0,0,8.979-1.159,19.816,19.816,0,0,0,6.9-3.66,28.78,28.78,0,0,0,5.622-6.344,71.482,71.482,0,0,0,5.132-9.333q7.094-15.249,13.088-31.476t11.5-34.77H322.8Z" transform="translate(-1)"/>
</svg>
